<?xml version="1.0" standalone="no"?>
<!DOCTYPE svg PUBLIC "-//W3C//DTD SVG 20010904//EN"
 "http://www.w3.org/TR/2001/REC-SVG-20010904/DTD/svg10.dtd">
<svg version="1.0" xmlns="http://www.w3.org/2000/svg"
 width="388.000000pt" height="189.000000pt" viewBox="0 0 388.000000 189.000000"
 preserveAspectRatio="xMidYMid meet">

<g transform="translate(0.000000,189.000000) scale(0.100000,-0.100000)"
fill="#000000" stroke="none">
<path d="M656 1594 c-146 -29 -270 -114 -323 -223 -24 -49 -28 -68 -28 -148 0
-105 7 -119 51 -103 36 14 89 5 114 -20 18 -18 18 -18 23 1 4 15 14 19 46 19
39 0 41 -1 42 -32 0 -31 1 -31 10 -10 5 13 22 29 39 35 l30 11 -28 29 c-34 36
-37 101 -6 144 45 62 164 89 266 59 66 -19 103 -56 119 -122 l11 -44 151 0
150 0 -6 55 c-17 168 -160 309 -355 351 -83 17 -215 17 -306 -2z"/>
<path d="M1779 1253 c-68 -186 -123 -346 -122 -356 2 -9 -6 -26 -17 -37 -28
-28 -25 -38 13 -42 31 -3 32 -4 33 -53 1 -27 3 -56 5 -64 7 -25 -21 -23 -31 3
-13 34 -40 34 -40 0 0 -33 -24 -27 -29 7 -2 16 -34 -58 -91 -213 -49 -130 -91
-246 -95 -258 -6 -20 -5 -20 157 -18 l163 3 40 127 40 128 242 0 242 0 43
-130 42 -130 163 0 163 0 -19 48 c-10 26 -67 180 -127 341 -60 162 -110 287
-112 278 -3 -13 -14 -17 -43 -17 l-39 0 0 90 0 90 -30 0 -30 0 0 -91 0 -90
-42 3 -43 3 -3 88 c-3 85 -3 87 -27 87 -25 0 -25 -1 -25 -88 0 -63 6 -106 20
-147 29 -85 30 -85 -45 -85 -63 0 -65 -1 -65 -26 0 -32 -22 -27 -31 7 -5 21
-7 22 -14 7 -9 -23 -41 -23 -50 0 -7 15 -9 14 -14 -7 -9 -34 -31 -39 -31 -7 0
19 -5 26 -20 26 -24 0 -23 -2 -7 46 8 22 17 51 21 67 6 25 4 27 -25 27 -22 0
-32 5 -36 20 -7 28 -59 28 -68 0 -5 -16 -15 -20 -46 -20 -26 0 -39 4 -39 14 0
11 46 145 75 219 5 12 18 17 45 17 l37 0 34 -92 34 -93 3 93 3 92 38 0 c38 0
39 1 50 46 13 51 22 49 41 -8 l12 -38 139 0 c76 0 139 3 139 8 0 4 -38 108
-84 232 l-84 225 -144 3 -144 3 -125 -338z m621 -499 c24 -70 20 -93 -10 -56
-10 12 -24 22 -30 22 -6 0 -20 -10 -30 -22 -30 -37 -34 -14 -10 56 16 49 26
66 40 66 14 0 24 -17 40 -66z"/>
<path d="M2327 740 c-3 -13 -4 -26 -2 -29 3 -2 5 1 5 7 0 7 14 12 30 12 17 0
30 -5 30 -12 0 -6 2 -9 5 -6 3 3 1 16 -4 29 -5 13 -10 18 -10 12 -1 -17 -38
-17 -43 -1 -3 7 -7 2 -11 -12z"/>
<path d="M2821 1343 c0 -248 0 -248 29 -323 l28 -75 4 85 3 85 43 3 42 3 0
-90 0 -91 45 0 45 0 0 90 0 90 30 0 29 0 3 113 3 112 298 3 297 2 0 120 0 120
-450 0 -450 0 1 -247z"/>
<path d="M336 1087 c-43 -43 -30 -74 44 -106 37 -16 50 -27 48 -39 -4 -22 -51
-28 -68 -8 -15 20 -50 21 -50 3 0 -42 92 -71 134 -44 56 37 38 92 -39 121 -32
13 -45 23 -43 35 4 22 56 28 64 7 6 -17 54 -23 54 -7 0 24 -38 53 -77 58 -35
5 -45 2 -67 -20z"/>
<path d="M514 1097 c-2 -7 -3 -58 -2 -113 3 -94 4 -99 26 -102 22 -3 22 -2 22
112 0 110 -1 116 -20 116 -11 0 -23 -6 -26 -13z"/>
<path d="M624 1087 c-40 -35 -28 -68 39 -104 28 -15 52 -35 52 -43 0 -21 -49
-25 -65 -6 -15 20 -50 21 -50 3 0 -39 85 -69 129 -45 58 31 44 90 -29 120 -35
14 -50 26 -48 37 4 22 56 27 64 7 3 -9 17 -16 30 -16 20 0 22 3 15 23 -18 48
-93 61 -137 24z"/>
<path d="M790 1090 c0 -15 7 -20 30 -20 l29 0 3 -92 c3 -88 4 -93 26 -96 21
-3 22 -1 22 92 l0 96 35 0 c28 0 35 4 35 20 0 19 -7 20 -90 20 -83 0 -90 -1
-90 -20z"/>
<path d="M1000 995 l0 -115 70 0 c63 0 70 2 70 19 0 17 -8 20 -47 23 -44 3
-48 5 -51 31 -3 26 -2 27 42 27 39 0 46 3 46 20 0 17 -7 20 -46 20 -41 0 -45
2 -42 23 3 19 10 22 51 25 39 3 47 6 47 23 0 17 -7 19 -70 19 l-70 0 0 -115z"/>
<path d="M1170 996 l0 -116 25 0 c24 0 25 2 26 78 l0 77 27 -75 c17 -47 33
-75 42 -75 8 0 25 29 43 75 15 41 29 75 30 76 1 1 0 -33 -2 -77 l-3 -79 26 0
26 0 0 116 0 115 -32 -3 c-30 -3 -34 -8 -58 -75 -14 -40 -27 -73 -30 -73 -3 0
-16 33 -30 73 -24 68 -27 72 -57 75 l-33 3 0 -115z"/>
<path d="M1507 1093 c-2 -10 -21 -62 -40 -115 l-36 -98 25 0 c17 0 27 8 34 25
8 21 16 25 49 25 33 0 40 -4 45 -25 5 -19 13 -25 32 -25 17 0 24 5 21 13 -2 6
-21 58 -42 115 -33 88 -41 102 -60 102 -13 0 -25 -8 -28 -17z m47 -100 c6 -20
4 -23 -18 -23 -30 0 -29 -2 -15 40 12 34 19 30 33 -17z"/>
<path d="M1799 1083 c-34 -89 -69 -186 -69 -194 0 -21 41 -8 50 16 8 21 16 25
50 25 34 0 41 -4 46 -25 4 -18 13 -25 30 -25 28 0 29 5 10 51 -7 19 -26 67
-40 107 -21 55 -32 72 -47 72 -12 0 -24 -11 -30 -27z m46 -85 c6 -25 4 -28
-18 -28 -24 0 -25 1 -14 35 11 38 22 36 32 -7z"/>
<path d="M1960 996 c0 -108 1 -116 20 -116 17 0 19 8 22 73 l3 72 44 -72 c34
-58 48 -73 67 -73 24 0 24 0 24 115 l0 115 -25 0 c-23 0 -24 -3 -27 -70 l-3
-71 -41 68 c-27 46 -47 69 -62 71 -22 3 -22 1 -22 -112z"/>
<path d="M2170 1090 c0 -16 6 -20 30 -20 l30 0 0 -95 c0 -95 0 -95 25 -95 25
0 25 0 25 95 l0 95 36 0 c28 0 35 3 32 18 -3 14 -17 17 -91 20 -82 3 -87 2
-87 -18z"/>
<path d="M2380 995 c0 -115 0 -116 23 -113 21 3 22 7 22 113 0 106 -1 110 -22
113 -23 3 -23 2 -23 -113z"/>
<path d="M2550 995 c0 -108 1 -115 20 -115 17 0 20 7 20 45 l0 45 45 0 c38 0
45 3 45 19 0 16 -8 20 -42 23 -38 3 -43 6 -43 28 0 23 4 25 48 28 39 3 47 6
47 23 0 17 -7 19 -70 19 l-70 0 0 -115z"/>
<path d="M2751 1091 c-6 -10 -23 -54 -39 -97 -17 -43 -33 -87 -37 -96 -6 -15
-2 -18 19 -18 19 0 29 7 36 25 8 21 16 25 49 25 33 0 40 -4 45 -25 5 -19 13
-25 32 -25 17 0 24 5 21 13 -2 6 -21 58 -42 115 -29 79 -41 102 -56 102 -10 0
-23 -8 -28 -19z m43 -98 c6 -20 4 -23 -18 -23 -30 0 -29 -2 -15 40 12 34 19
30 33 -17z"/>
<path d="M2904 1097 c-2 -7 -3 -58 -2 -113 l3 -99 70 0 c58 0 70 3 73 18 3 14
-4 17 -47 17 l-51 0 0 95 c0 89 -1 95 -20 95 -11 0 -23 -6 -26 -13z"/>
<path d="M3074 1097 c-2 -7 -3 -58 -2 -113 3 -94 4 -99 26 -102 20 -3 22 0 22
47 l0 51 45 0 45 0 0 -51 c0 -47 2 -50 23 -47 21 3 22 7 22 113 0 106 -1 110
-22 113 -21 3 -23 -1 -23 -42 l0 -46 -45 0 -45 0 0 45 c0 39 -3 45 -20 45 -11
0 -23 -6 -26 -13z"/>
<path d="M3325 1008 c-21 -57 -40 -109 -42 -115 -3 -8 4 -13 21 -13 19 0 27 6
32 25 5 21 12 25 45 25 32 0 41 -5 51 -25 7 -16 19 -25 34 -25 l23 0 -35 96
c-43 121 -51 134 -73 134 -14 0 -27 -24 -56 -102z m79 -15 c6 -20 4 -23 -18
-23 -30 0 -29 -2 -15 40 12 34 19 30 33 -17z"/>
<path d="M3536 1089 c-30 -23 -34 -60 -10 -80 9 -8 35 -23 58 -34 22 -11 41
-27 41 -35 0 -21 -56 -26 -67 -6 -5 9 -20 16 -33 16 -22 0 -24 -2 -13 -24 14
-31 59 -50 100 -42 41 8 58 23 58 53 0 39 -16 59 -65 77 -32 13 -45 23 -43 35
4 22 49 27 60 7 11 -19 48 -22 48 -3 0 18 -12 32 -37 46 -33 17 -67 13 -97
-10z"/>
<path d="M380 1046 c0 -2 7 -6 15 -10 8 -3 15 -1 15 4 0 6 -7 10 -15 10 -8 0
-15 -2 -15 -4z"/>
<path d="M670 1046 c0 -2 7 -6 15 -10 8 -3 15 -1 15 4 0 6 -7 10 -15 10 -8 0
-15 -2 -15 -4z"/>
<path d="M776 1035 c-3 -8 -13 -15 -22 -15 -15 0 -15 -3 4 -23 43 -45 24 -110
-37 -128 -46 -14 -103 1 -125 32 -13 19 -14 19 -18 -10 -4 -29 -1 -32 56 -56
34 -13 104 -40 156 -58 52 -19 103 -37 113 -42 14 -6 17 -2 17 23 0 52 9 62
51 62 28 0 39 -4 39 -15 0 -10 -10 -15 -30 -15 -36 0 -40 -17 -5 -22 35 -4 36
-22 3 -26 -36 -4 -35 -14 4 -63 27 -33 32 -49 32 -92 1 -64 -21 -98 -82 -128
-61 -30 -208 -24 -273 12 -50 28 -84 81 -94 146 l-6 43 -150 0 -149 0 0 -38
c0 -138 99 -281 245 -353 89 -44 156 -59 285 -65 312 -16 513 119 528 352 6
90 -2 124 -28 124 -32 0 -54 44 -47 94 6 38 3 46 -21 70 -27 25 -33 26 -135
26 l-107 0 0 60 c0 48 -4 61 -19 70 -36 19 -41 12 -41 -61 l0 -70 -42 3 -43 3
-3 88 c-3 84 -4 87 -26 87 -13 0 -26 -7 -30 -15z"/>
<path d="M470 1022 c-14 -6 -14 -9 2 -24 17 -17 18 -17 18 7 0 14 -1 25 -2 24
-2 0 -10 -3 -18 -7z"/>
<path d="M580 1003 c0 -29 3 -33 28 -33 23 1 25 2 11 13 -8 7 -21 21 -27 32
-10 18 -11 17 -12 -12z"/>
<path d="M3274 1006 c-3 -8 -4 -29 -2 -48 l3 -33 17 48 c14 40 15 47 2 47 -8
0 -17 -6 -20 -14z"/>
<path d="M3460 1015 c0 -2 5 -15 11 -28 8 -18 16 -22 40 -19 l29 4 -23 24
c-19 20 -57 33 -57 19z"/>
<path d="M660 950 c0 -5 10 -10 23 -10 18 0 19 2 7 10 -19 13 -30 13 -30 0z"/>
<path d="M1060 950 c0 -5 5 -10 11 -10 5 0 7 5 4 10 -3 6 -8 10 -11 10 -2 0
-4 -4 -4 -10z"/>
<path d="M3140 915 l0 -45 -160 0 -160 0 0 -325 0 -325 150 0 150 0 0 275 0
275 58 0 c53 0 60 2 70 25 10 21 19 25 53 25 28 0 39 -4 36 -12 -2 -7 -13 -12
-25 -11 -11 1 -26 -4 -32 -12 -11 -13 8 -15 148 -15 l160 0 6 25 c8 32 39 33
54 3 9 -20 11 -16 11 29 l1 51 -35 -11 c-27 -8 -43 -7 -75 6 -22 8 -40 11 -40
6 0 -5 -20 -9 -44 -9 -35 0 -45 4 -49 20 -3 14 -14 20 -32 20 -18 0 -29 -6
-32 -20 -5 -18 -14 -20 -84 -20 l-79 0 0 45 c0 41 -2 45 -25 45 -23 0 -25 -4
-25 -45z m-140 -166 c0 -52 -3 -70 -12 -67 -8 3 -14 29 -16 71 -2 55 0 67 13
67 12 0 15 -14 15 -71z"/>
<path d="M2983 750 c0 -36 2 -50 4 -32 2 17 2 47 0 65 -2 17 -4 3 -4 -33z"/>
<path d="M3570 950 c0 -5 10 -10 23 -10 18 0 19 2 7 10 -19 13 -30 13 -30 0z"/>
<path d="M313 750 c0 -36 2 -50 4 -32 2 17 2 47 0 65 -2 17 -4 3 -4 -33z"/>
<path d="M582 753 l2 -58 3 53 c3 35 8 50 15 46 7 -4 8 -2 4 4 -16 27 -26 9
-24 -45z"/>
<path d="M662 762 c-2 -39 -5 -51 -14 -46 -10 5 -10 4 -1 -6 19 -21 24 -7 20
51 l-3 54 -2 -53z"/>
<path d="M1265 799 c-4 -6 -5 -12 -2 -15 2 -3 7 2 10 11 7 17 1 20 -8 4z"/>
<path d="M1320 803 c5 -2 10 -25 10 -49 0 -49 -19 -66 -51 -45 -11 6 -19 7
-19 1 0 -16 49 -23 66 -9 19 15 16 101 -4 105 -7 1 -8 0 -2 -3z"/>
<path d="M1600 753 c0 -31 3 -54 6 -51 9 9 11 108 2 108 -4 0 -8 -25 -8 -57z"/>
<path d="M1667 790 c3 -11 0 -26 -6 -34 -9 -11 -9 -16 0 -22 7 -4 9 -3 5 4 -3
6 -2 13 4 17 12 8 13 42 1 49 -5 4 -7 -3 -4 -14z"/>
<path d="M1942 748 l2 -63 3 58 c2 33 8 55 14 52 5 -4 9 -1 9 4 0 6 -7 11 -15
11 -12 0 -15 -13 -13 -62z"/>
<path d="M2030 799 c0 -5 4 -8 9 -4 6 3 12 -19 14 -52 l3 -58 2 63 c2 49 -1
62 -13 62 -8 0 -15 -5 -15 -11z"/>
<path d="M2657 803 c19 -4 23 -12 26 -61 l3 -57 2 57 c2 50 5 57 25 61 12 2 0
4 -28 4 -27 0 -40 -2 -28 -4z"/>
<path d="M1624 789 c-8 -14 11 -33 25 -25 6 4 11 11 11 16 0 13 -29 20 -36 9z"/>
<path d="M933 745 c0 -27 2 -38 4 -23 3 22 10 28 36 31 l32 4 -32 1 c-21 1
-33 8 -36 20 -3 9 -5 -5 -4 -33z"/>
<path d="M3250 754 c0 -16 5 -36 10 -44 6 -10 7 -2 3 25 -7 49 -13 58 -13 19z"/>
<path d="M1252 750 c0 -14 2 -19 5 -12 2 6 2 18 0 25 -3 6 -5 1 -5 -13z"/>
<path d="M1275 745 c7 -33 12 -41 21 -33 3 4 -2 19 -11 35 l-16 28 6 -30z"/>
<path d="M3641 758 c-1 -21 -41 -25 -42 -5 0 6 -4 3 -9 -8 -11 -26 -12 -44 -1
-26 6 9 20 12 40 9 33 -5 34 -4 21 27 -7 17 -9 17 -9 3z"/>
<path d="M3288 693 c6 -2 18 -2 25 0 6 3 1 5 -13 5 -14 0 -19 -2 -12 -5z"/>
</g>
</svg>
